<svg version="1.0" xmlns="http://www.w3.org/2000/svg"
 width="897.000000pt" height="1280.000000pt" viewBox="0 0 897.000000 1280.000000"
 preserveAspectRatio="xMidYMid meet">
<metadata>
Created by potrace 1.15, written by Peter Selinger 2001-2017
</metadata>
<g transform="translate(0.000000,1280.000000) scale(0.100000,-0.100000)"
fill=" rgb(220 38 38)" stroke="none">
<path d="M3747 12595 c-15 -6 -44 -27 -65 -46 -20 -20 -49 -43 -64 -52 -16
-10 -28 -23 -28 -31 0 -7 -9 -21 -19 -31 -25 -22 -91 -132 -91 -150 0 -8 -4
-17 -10 -20 -5 -3 -10 -44 -10 -91 0 -49 4 -84 10 -84 6 0 10 -7 10 -15 0 -8
10 -24 23 -37 48 -48 44 -61 -53 -167 -59 -65 -102 -115 -179 -211 -15 -19
-30 -43 -34 -52 -4 -10 -11 -18 -17 -18 -5 0 -10 -9 -10 -19 0 -11 -4 -22 -9
-25 -11 -7 -76 -121 -108 -188 -20 -43 -43 -70 -43 -51 1 50 25 156 45 199 14
30 25 62 25 71 0 9 6 24 13 32 7 9 19 36 26 61 7 25 19 57 27 72 8 14 14 35
14 46 0 12 5 24 10 27 6 3 10 21 10 40 0 18 4 35 10 37 14 5 16 226 2 240 -7
7 -12 22 -12 35 0 13 -4 23 -10 23 -5 0 -10 5 -10 11 0 27 -38 88 -86 136 -52
54 -110 86 -174 98 -42 8 -200 -11 -214 -25 -5 -5 -17 -10 -26 -10 -10 0 -27
-9 -40 -20 -13 -11 -30 -20 -38 -20 -13 0 -59 -24 -200 -104 -35 -20 -68 -36
-72 -36 -5 0 -22 -8 -38 -17 -28 -16 -31 -16 -56 1 -15 9 -30 25 -34 34 -9 25
-121 132 -137 132 -7 0 -15 3 -17 8 -16 36 -271 60 -298 27 -7 -8 -16 -13 -20
-10 -5 3 -25 -6 -46 -20 -20 -14 -42 -25 -49 -25 -25 0 -185 -151 -185 -175 0
-3 -11 -29 -25 -58 -27 -54 -39 -96 -56 -182 -10 -52 -2 -218 12 -245 15 -29
39 -119 39 -147 0 -16 11 -51 23 -79 32 -67 45 -143 53 -310 11 -218 2 -239
-81 -189 -110 66 -166 95 -185 95 -8 0 -29 8 -45 19 -44 26 -84 33 -224 38
-80 3 -128 0 -134 -6 -6 -6 -20 -11 -30 -11 -26 0 -156 -127 -175 -170 -8 -20
-17 -81 -20 -142 -5 -115 8 -174 49 -209 10 -9 19 -21 19 -26 0 -12 117 -133
129 -133 5 0 14 -7 21 -15 7 -8 19 -15 27 -15 8 0 21 -7 29 -15 8 -8 34 -20
57 -26 23 -6 50 -15 60 -20 9 -5 38 -12 62 -16 25 -3 45 -9 45 -12 0 -4 -21
-29 -48 -57 -26 -27 -56 -62 -66 -78 -10 -17 -32 -41 -48 -55 -17 -13 -41 -40
-54 -60 -13 -20 -44 -61 -69 -91 -24 -30 -44 -58 -45 -62 0 -5 -22 -38 -48
-75 -26 -38 -56 -85 -65 -105 -10 -20 -22 -40 -27 -43 -12 -8 -150 -289 -150
-307 0 -8 -7 -23 -15 -34 -8 -10 -15 -28 -15 -39 0 -12 -5 -26 -11 -32 -6 -6
-12 -21 -14 -34 -1 -13 -8 -46 -14 -72 -6 -27 -14 -69 -16 -95 -3 -25 -9 -50
-15 -56 -12 -12 -14 -303 -1 -310 4 -3 11 -36 14 -73 3 -37 14 -90 24 -118 28
-79 68 -105 162 -105 72 0 74 -19 10 -105 -36 -49 -245 -255 -389 -385 -40
-36 -90 -92 -111 -125 -21 -33 -43 -65 -49 -72 -5 -7 -10 -21 -10 -31 0 -11
-7 -25 -15 -32 -8 -7 -15 -21 -15 -31 0 -10 -4 -21 -10 -24 -5 -3 -10 -43 -10
-87 0 -87 11 -107 57 -108 23 0 73 46 73 67 0 7 12 33 27 58 32 52 63 61 63
18 -1 -99 1 -112 25 -147 14 -20 25 -42 25 -47 0 -19 44 -48 72 -49 33 0 52
32 61 99 3 24 9 47 14 50 19 14 53 109 53 150 0 14 7 39 15 55 8 15 15 36 15
46 0 10 7 23 15 30 9 8 15 30 15 57 0 47 35 112 99 182 17 18 31 37 31 40 0 4
28 36 63 71 34 36 74 82 87 102 14 21 28 38 33 38 4 0 7 5 7 11 0 6 11 25 25
43 14 18 25 38 25 43 0 17 21 21 90 14 112 -10 279 -6 292 7 7 7 20 12 30 12
10 0 26 4 36 9 9 5 46 21 82 36 36 15 110 49 165 75 55 26 107 50 115 54 8 3
22 10 30 14 41 24 61 32 77 32 10 0 29 12 42 25 13 14 27 25 32 25 5 0 39 21
76 48 76 53 120 75 134 67 12 -8 12 -142 -1 -150 -6 -3 -10 -24 -10 -45 0 -21
-4 -41 -9 -44 -5 -4 -12 -25 -16 -49 -8 -48 -70 -221 -91 -254 -8 -12 -14 -28
-14 -35 0 -7 -20 -54 -45 -103 -25 -50 -45 -94 -45 -99 0 -6 -40 -91 -88 -190
-48 -100 -101 -210 -117 -246 -16 -36 -41 -83 -54 -105 -37 -60 -121 -228
-121 -242 0 -7 -4 -13 -9 -13 -4 0 -16 -21 -26 -47 -10 -27 -21 -50 -24 -53
-13 -10 -121 -237 -121 -252 0 -9 -5 -20 -10 -23 -6 -3 -10 -12 -10 -20 0 -8
-11 -31 -25 -51 -14 -20 -25 -45 -25 -55 0 -9 -4 -19 -8 -21 -10 -4 -62 -108
-62 -124 0 -6 -7 -17 -15 -24 -8 -7 -15 -21 -15 -30 0 -10 -16 -49 -35 -86
-19 -37 -35 -72 -35 -78 0 -6 -11 -33 -24 -61 -47 -95 -86 -186 -86 -199 0 -6
-4 -16 -9 -22 -5 -5 -21 -45 -36 -89 -15 -44 -32 -84 -36 -89 -5 -6 -9 -19 -9
-31 0 -12 -7 -30 -15 -41 -8 -10 -15 -27 -15 -38 0 -16 -37 -112 -60 -158 -5
-9 -12 -39 -16 -67 -4 -28 -11 -54 -15 -57 -5 -3 -9 -18 -9 -35 0 -16 -4 -37
-9 -47 -21 -40 -30 -70 -40 -122 -17 -94 -23 -114 -39 -132 -8 -10 -12 -26 -9
-37 3 -11 -1 -28 -9 -38 -7 -10 -14 -34 -14 -53 0 -19 -5 -53 -11 -75 -21 -80
-30 -132 -40 -220 -5 -49 -14 -98 -19 -107 -6 -10 -10 -56 -10 -102 0 -47 -5
-88 -10 -91 -6 -3 -10 -52 -10 -110 0 -58 -4 -107 -10 -110 -14 -8 -14 -712 0
-720 6 -3 10 -44 10 -90 0 -46 4 -87 10 -90 5 -3 10 -37 10 -75 0 -38 4 -71 9
-74 5 -3 12 -64 16 -136 4 -72 11 -133 16 -136 5 -3 9 -22 9 -42 0 -20 7 -55
14 -78 8 -22 16 -67 17 -100 2 -32 9 -74 16 -91 7 -18 12 -36 11 -40 0 -5 4
-21 10 -36 7 -16 12 -41 12 -57 0 -16 4 -31 9 -34 5 -3 12 -35 16 -71 3 -36
11 -67 16 -70 5 -4 9 -17 9 -31 0 -13 3 -24 8 -24 4 0 13 -22 19 -50 7 -27 20
-67 29 -87 34 -77 115 -248 125 -263 5 -8 13 -24 18 -35 5 -12 16 -27 24 -34
9 -7 19 -26 22 -42 4 -16 10 -29 14 -29 4 0 24 -30 45 -66 22 -36 45 -68 52
-71 7 -2 20 -20 29 -39 9 -19 20 -34 25 -34 6 0 10 -6 10 -13 0 -7 11 -24 25
-39 14 -15 25 -30 25 -33 0 -12 82 -112 140 -170 33 -33 60 -64 60 -70 0 -12
264 -275 275 -275 5 0 34 -24 66 -52 71 -66 127 -112 142 -117 6 -2 23 -15 36
-28 14 -12 31 -23 38 -23 7 0 13 -4 13 -8 0 -9 86 -70 135 -95 76 -39 92 -48
120 -67 17 -11 37 -23 45 -26 8 -3 74 -34 145 -69 72 -35 152 -71 178 -80 27
-8 79 -31 116 -50 37 -19 75 -35 84 -35 9 0 19 -4 22 -10 3 -5 17 -10 30 -10
13 0 26 -4 29 -9 3 -5 29 -11 58 -14 54 -6 192 -36 263 -57 76 -23 287 -32
595 -25 168 4 334 11 370 16 36 5 83 12 105 15 22 3 49 9 60 14 11 5 44 11 74
14 30 3 59 10 65 16 5 5 27 10 47 10 21 0 40 4 43 9 3 5 20 11 38 15 62 10
163 32 178 38 8 4 38 14 65 23 28 9 58 21 67 26 10 5 29 9 43 9 14 0 43 11 65
25 22 14 48 25 59 25 11 0 23 5 26 10 3 6 15 10 26 10 10 0 40 11 67 24 26 13
66 32 90 41 23 10 42 22 42 27 0 4 6 8 13 8 10 0 48 24 166 102 14 10 33 21
41 25 24 11 143 113 168 144 13 16 29 29 35 29 11 0 157 136 157 146 0 6 20
31 50 63 38 39 90 108 90 118 0 5 14 22 30 38 17 16 30 37 30 47 0 10 5 18 10
18 6 0 10 5 10 11 0 11 50 82 63 87 4 2 7 9 7 16 0 6 14 38 32 71 30 59 38 74
81 165 12 25 25 46 30 48 4 2 7 14 7 26 0 12 7 31 15 42 8 10 15 29 15 42 0
12 4 30 9 40 4 9 16 35 26 57 9 22 21 47 26 55 22 37 53 106 51 112 -1 4 7 24
18 43 11 20 20 42 20 51 0 8 7 26 16 39 9 13 17 30 18 37 8 40 19 76 31 103
20 43 28 69 27 78 -1 4 7 24 18 44 11 21 20 45 20 55 0 9 5 20 10 23 6 3 10
21 10 40 0 19 4 36 9 39 5 3 12 33 16 66 4 33 11 63 16 66 5 3 9 23 9 44 0 21
4 42 10 45 6 3 10 25 10 49 0 23 3 46 8 50 4 4 12 62 19 129 21 209 31 288 42
300 13 16 6 424 -8 460 -6 16 -11 72 -11 126 0 54 -3 101 -7 105 -7 7 -22 108
-39 261 -3 28 -10 54 -15 59 -5 6 -9 24 -9 41 0 18 -3 35 -7 39 -8 7 -29 90
-40 154 -3 18 -9 35 -14 38 -5 3 -9 16 -9 28 0 13 -6 29 -14 35 -7 6 -16 28
-20 49 -3 20 -15 55 -26 77 -11 21 -20 47 -20 55 0 9 -3 20 -7 24 -4 3 -8 13
-9 20 -2 12 -99 215 -123 256 -5 8 -14 32 -21 54 -10 32 -61 119 -81 136 -3 3
-13 21 -22 40 -24 47 -38 69 -64 99 -13 14 -23 32 -23 39 0 7 -11 28 -25 46
-14 18 -25 38 -25 44 0 7 -3 12 -8 12 -4 0 -16 17 -27 38 -11 20 -30 51 -42
68 -13 17 -23 35 -23 39 0 4 -11 23 -25 41 -14 18 -25 36 -25 41 0 4 -14 28
-30 53 -17 25 -40 65 -51 90 -11 25 -25 52 -30 60 -23 36 -108 220 -125 270
-10 30 -21 60 -25 65 -5 6 -13 70 -20 142 -9 103 -9 169 0 299 7 91 16 174 20
183 5 9 16 30 25 48 9 17 16 36 16 42 0 15 71 124 87 134 7 4 13 14 13 21 0
15 61 76 76 76 6 0 19 9 30 21 35 39 76 52 174 57 154 7 273 -27 380 -107 64
-48 350 -331 350 -346 0 -13 65 -75 79 -75 5 0 31 -22 57 -50 26 -27 55 -50
65 -50 11 0 19 -4 19 -10 0 -33 263 -176 345 -187 27 -3 56 -12 63 -20 21 -20
390 -19 398 2 4 11 21 15 56 15 97 0 263 63 329 126 14 13 28 24 33 24 4 0 18
11 32 25 14 14 30 25 36 25 5 0 19 11 30 25 11 14 25 25 32 25 13 0 56 41 56
54 0 4 18 25 40 47 22 22 40 46 40 54 0 7 3 15 7 17 12 5 57 69 69 98 6 14 19
42 28 63 9 21 16 49 16 62 0 14 4 25 9 25 5 0 12 10 16 23 3 12 10 31 14 42
20 48 33 105 28 119 -3 8 -2 18 3 21 6 4 10 105 10 249 0 197 -3 246 -15 262
-8 10 -15 33 -15 51 0 17 -4 35 -10 38 -5 3 -10 14 -10 23 0 10 -9 34 -20 55
-11 21 -18 42 -15 46 2 5 -2 14 -10 21 -8 7 -15 19 -15 26 0 28 -71 121 -152
202 -46 45 -87 82 -91 82 -4 0 -31 16 -61 35 -30 19 -63 35 -74 35 -10 0 -22
4 -27 8 -25 22 -224 49 -270 38 -50 -13 -13 -90 50 -102 59 -11 120 -75 170
-178 55 -115 83 -219 97 -369 14 -140 2 -268 -32 -341 -76 -167 -197 -321
-291 -368 -123 -62 -126 -62 -274 -63 l-140 0 -73 48 c-41 26 -104 79 -142
117 -65 66 -130 151 -130 170 0 5 -6 13 -12 17 -7 4 -24 28 -37 53 -14 25 -31
51 -38 58 -7 7 -13 20 -13 28 0 8 -4 14 -9 14 -10 0 -71 85 -71 98 0 10 -193
202 -203 202 -4 0 -20 11 -35 25 -15 14 -33 25 -40 25 -15 0 -49 19 -82 45
-14 12 -43 27 -65 34 -38 13 -68 25 -143 57 -18 8 -40 14 -49 14 -17 0 -71 16
-113 33 -49 20 -127 29 -289 34 -108 3 -167 1 -174 -6 -6 -6 -27 -11 -47 -11
-20 0 -45 -7 -56 -15 -10 -8 -31 -15 -46 -15 -15 0 -29 -4 -32 -9 -3 -4 -23
-11 -45 -15 -22 -3 -69 -22 -105 -41 -37 -19 -73 -35 -81 -35 -8 0 -15 -3 -15
-8 0 -4 -17 -15 -37 -25 -57 -27 -82 -42 -107 -66 -12 -11 -26 -21 -30 -21
-28 0 -255 -227 -279 -280 -4 -8 -15 -27 -25 -41 -74 -111 -93 -144 -129 -219
-50 -103 -73 -164 -73 -189 0 -11 -5 -21 -10 -23 -6 -2 -12 -12 -15 -23 -2
-11 -11 -46 -19 -78 -9 -32 -14 -62 -11 -66 2 -5 -2 -17 -10 -27 -8 -10 -15
-38 -15 -61 0 -24 -4 -43 -10 -43 -6 0 -10 -26 -10 -59 0 -33 -4 -63 -10 -66
-13 -8 -14 -507 -1 -520 10 -11 18 -73 27 -195 3 -41 10 -80 15 -86 5 -7 18
-58 29 -115 11 -56 24 -107 30 -113 5 -5 10 -24 10 -40 0 -17 11 -55 25 -84
14 -30 25 -62 25 -72 0 -11 4 -21 9 -24 5 -3 12 -22 16 -42 3 -20 23 -71 42
-113 50 -105 54 -115 57 -133 1 -9 7 -22 13 -29 6 -8 18 -37 26 -65 8 -28 20
-60 25 -70 29 -57 62 -131 62 -141 0 -7 11 -33 25 -59 14 -26 25 -52 25 -58 0
-6 12 -33 25 -61 14 -27 25 -55 25 -61 0 -7 7 -25 15 -40 8 -16 15 -36 15 -44
0 -8 9 -26 20 -40 11 -14 20 -33 20 -42 0 -9 4 -19 9 -22 5 -4 12 -25 16 -48
8 -43 10 -50 39 -105 9 -17 16 -38 16 -46 0 -8 11 -49 25 -92 13 -43 36 -132
50 -199 13 -66 30 -141 36 -166 6 -25 13 -146 16 -270 4 -212 -3 -338 -26
-455 -6 -27 -15 -77 -21 -109 -16 -90 -45 -195 -97 -358 -34 -109 -208 -463
-248 -508 -8 -9 -15 -21 -15 -27 0 -6 -7 -17 -16 -24 -9 -7 -20 -22 -25 -34
-46 -100 -237 -318 -387 -443 -141 -117 -326 -224 -452 -262 -41 -12 -79 -26
-85 -30 -27 -20 -251 -42 -365 -35 -106 6 -143 14 -215 46 -22 9 -58 22 -80
27 -89 22 -288 103 -300 122 -3 5 -13 10 -21 10 -8 0 -33 12 -56 28 -22 15
-48 32 -57 37 -8 6 -21 16 -29 23 -7 6 -19 12 -27 12 -7 0 -15 3 -17 8 -1 4
-37 29 -78 57 -41 27 -127 101 -191 165 -183 181 -324 415 -394 650 -9 30 -21
63 -26 72 -5 10 -9 24 -9 32 0 8 -11 34 -25 57 -14 24 -25 53 -25 64 0 11 -7
28 -15 39 -8 10 -24 51 -35 90 -12 39 -27 91 -35 116 -8 25 -21 86 -30 135 -9
50 -20 104 -26 121 -5 17 -9 49 -9 72 0 22 -5 44 -10 47 -5 3 -10 24 -10 45 0
21 -4 41 -9 44 -4 3 -12 38 -16 78 -4 40 -9 82 -12 93 -2 11 -6 52 -9 90 -3
39 -10 75 -16 82 -15 18 -30 407 -23 573 4 93 12 155 21 174 8 16 14 51 14 77
0 26 5 51 11 55 6 3 9 14 6 24 -2 9 2 46 10 81 8 35 17 75 19 89 3 14 9 34 14
45 5 11 11 34 13 50 3 17 8 41 11 55 3 14 8 39 12 55 6 34 23 90 35 120 4 11
10 31 12 45 3 14 16 56 31 95 14 38 26 78 26 88 0 9 4 25 9 35 5 9 16 44 26
77 9 33 21 69 26 80 4 11 16 45 25 75 9 30 21 59 25 64 5 6 9 19 9 30 0 11 6
27 13 35 8 9 22 43 32 76 10 33 26 71 35 85 10 14 21 49 25 77 4 29 11 55 16
59 5 3 9 16 9 29 0 13 4 27 10 30 5 3 10 17 10 30 0 13 4 27 10 30 6 3 10 13
10 21 0 8 13 41 28 72 16 32 32 70 36 86 4 16 25 66 46 111 21 45 42 94 45
108 4 14 15 34 26 46 10 11 19 28 20 38 0 10 11 38 24 63 40 76 65 132 65 144
0 6 9 26 20 44 11 18 20 41 20 52 0 10 5 22 10 25 6 3 10 14 10 23 0 9 7 30
15 46 8 15 15 35 15 42 0 8 4 22 9 32 22 43 41 94 41 110 0 9 7 26 15 36 8 11
15 32 15 47 0 15 5 31 10 34 6 3 10 16 10 28 0 12 7 31 15 41 8 11 15 30 15
42 0 13 5 26 10 29 6 3 10 17 10 30 0 13 4 26 9 29 5 3 12 22 16 42 3 20 10
44 15 53 4 9 13 30 20 46 6 17 18 43 26 58 8 16 14 34 14 42 0 7 7 26 15 41 8
16 15 37 15 46 0 9 5 20 10 23 6 3 10 15 10 25 0 10 8 33 17 52 31 61 33 68
33 87 0 11 5 23 10 26 6 3 10 18 10 33 0 15 7 40 15 56 8 15 15 41 15 55 0 15
3 31 7 35 10 10 31 75 38 120 7 40 23 95 43 146 6 14 18 61 27 105 10 44 21
88 26 97 5 10 9 27 9 37 0 11 5 23 10 26 6 3 10 17 10 29 0 26 26 120 41 148
5 10 9 26 9 36 0 10 4 22 9 27 5 6 14 51 20 100 5 50 14 103 20 118 6 16 11
45 11 66 0 20 4 41 9 46 20 20 40 640 21 659 -5 5 -10 36 -10 67 0 32 -4 61
-10 64 -5 3 -10 14 -10 23 0 9 -7 30 -15 46 -8 15 -15 39 -15 52 0 13 -5 34
-11 48 -17 36 -4 76 24 76 30 0 122 33 144 52 10 8 36 25 58 38 46 27 162 136
176 165 5 11 18 34 29 50 26 41 60 115 60 131 0 7 5 16 10 19 12 8 13 112 1
119 -5 3 -12 21 -15 40 -5 25 -29 56 -86 115 -44 45 -87 81 -95 81 -8 0 -15 4
-15 10 0 12 -43 34 -128 65 -60 21 -87 25 -190 25 -70 0 -123 -4 -127 -10 -3
-5 -13 -10 -22 -10 -8 0 -29 -6 -46 -14 -122 -52 -130 -49 -77 29 17 24 30 48
30 53 0 5 7 15 15 22 8 7 15 21 15 32 0 17 62 124 79 138 4 3 15 19 25 35 11
17 25 34 33 38 7 4 13 13 13 18 0 18 143 180 233 264 171 161 233 204 362 255
90 36 244 45 304 19 32 -14 41 -29 18 -29 -24 0 -76 -30 -92 -53 -21 -29 -19
-66 5 -102 11 -16 20 -36 20 -43 0 -8 -25 -36 -55 -64 -42 -38 -55 -57 -55
-79 0 -40 52 -97 93 -101 30 -3 32 -5 29 -38 -2 -19 -8 -36 -13 -38 -12 -5
-11 -15 7 -78 l15 -54 57 0 c67 0 103 19 177 92 l50 50 6 -40 c5 -41 13 -55
58 -104 39 -44 115 -31 166 28 11 13 28 24 38 24 9 0 17 6 17 14 0 7 7 19 15
26 8 7 15 22 15 34 0 12 5 27 12 34 15 15 54 16 63 2 3 -5 34 -10 69 -10 59 0
64 2 96 38 79 85 80 116 4 188 -31 30 -61 54 -68 54 -7 0 -17 5 -24 12 -8 8
-6 17 11 34 12 13 28 24 35 24 7 0 15 8 19 18 3 9 24 34 45 54 34 33 38 42 38
87 0 43 -4 53 -31 75 -36 30 -45 31 -99 10 -59 -24 -103 -13 -130 33 l-21 36
-78 -5 c-59 -3 -85 -10 -109 -26 -33 -24 -57 -28 -67 -12 -12 20 -85 60 -107
60 -24 0 -83 -19 -105 -33 -7 -5 -13 -21 -13 -38 0 -24 -4 -29 -22 -29 -13 0
-32 7 -42 15 -11 8 -32 15 -47 15 -15 0 -31 5 -34 10 -3 6 -51 10 -109 10
-107 0 -118 -3 -257 -63 -21 -9 -40 -13 -43 -10 -10 10 -7 61 4 68 15 9 13
265 -2 298 -17 35 -46 47 -81 32z"/>
</g>
</svg>
